/vscmnt/brussel_pixiu_data/_data_brussel/112/vsc11236/PredSimResults/SUBJ07_Dhondt2024_3seg/weighted/worker_05.mot
version=1
nRows=4
nColumns=124
inDegrees=yes
endheader
                time	         pelvis_tilt	         pelvis_list	     pelvis_rotation	           pelvis_tx	           pelvis_ty	           pelvis_tz	       hip_flexion_r	     hip_adduction_r	      hip_rotation_r	        knee_angle_r	       ankle_angle_r	    subtalar_angle_r	         mtp_angle_r	       hip_flexion_l	     hip_adduction_l	      hip_rotation_l	        knee_angle_l	       ankle_angle_l	    subtalar_angle_l	         mtp_angle_l	    lumbar_extension	      lumbar_bending	     lumbar_rotation	          arm_flex_r	           arm_add_r	           arm_rot_r	        elbow_flex_r	          arm_flex_l	           arm_add_l	           arm_rot_l	        elbow_flex_l	glut_med1_r/activation	glut_med2_r/activation	glut_med3_r/activation	glut_min1_r/activation	glut_min2_r/activation	glut_min3_r/activation	semimem_r/activation	semiten_r/activation	bifemlh_r/activation	bifemsh_r/activation	    sar_r/activation	add_long_r/activation	add_brev_r/activation	add_mag1_r/activation	add_mag2_r/activation	add_mag3_r/activation	    tfl_r/activation	   pect_r/activation	   grac_r/activation	glut_max1_r/activation	glut_max2_r/activation	glut_max3_r/activation	iliacus_r/activation	  psoas_r/activation	quad_fem_r/activation	    gem_r/activation	   peri_r/activation	rect_fem_r/activation	vas_med_r/activation	vas_int_r/activation	vas_lat_r/activation	med_gas_r/activation	lat_gas_r/activation	 soleus_r/activation	tib_post_r/activation	flex_dig_r/activation	flex_hal_r/activation	tib_ant_r/activation	per_brev_r/activation	per_long_r/activation	per_tert_r/activation	ext_dig_r/activation	ext_hal_r/activation	glut_med1_l/activation	glut_med2_l/activation	glut_med3_l/activation	glut_min1_l/activation	glut_min2_l/activation	glut_min3_l/activation	semimem_l/activation	semiten_l/activation	bifemlh_l/activation	bifemsh_l/activation	    sar_l/activation	add_long_l/activation	add_brev_l/activation	add_mag1_l/activation	add_mag2_l/activation	add_mag3_l/activation	    tfl_l/activation	   pect_l/activation	   grac_l/activation	glut_max1_l/activation	glut_max2_l/activation	glut_max3_l/activation	iliacus_l/activation	  psoas_l/activation	quad_fem_l/activation	    gem_l/activation	   peri_l/activation	rect_fem_l/activation	vas_med_l/activation	vas_int_l/activation	vas_lat_l/activation	med_gas_l/activation	lat_gas_l/activation	 soleus_l/activation	tib_post_l/activation	flex_dig_l/activation	flex_hal_l/activation	tib_ant_l/activation	per_brev_l/activation	per_long_l/activation	per_tert_l/activation	ext_dig_l/activation	ext_hal_l/activation	 ercspn_r/activation	 ercspn_l/activation	 intobl_r/activation	 intobl_l/activation	 extobl_r/activation	 extobl_l/activation	
          0.00000000	         -2.92758181	         -0.38298169	          3.33464392	          0.00000000	          0.84632746	         -0.00214608	         28.26197216	          2.14588003	          2.66906857	        -10.67198998	          6.92621812	         -2.72631798	          0.23346827	        -17.28873227	          1.07250471	          9.18124862	         -4.56237533	          5.35046795	         11.15650824	         14.58587309	         -6.55003075	         -1.04062821	         -1.44914020	        -24.98625849	        -14.36189014	          8.71389857	         27.91031349	         23.87069709	        -13.45182641	         19.28192594	         56.02607275	          0.01399758	          0.01399751	          0.01000017	          0.01399755	          0.01399741	          0.01000050	          0.18006781	          0.04208251	          0.01183116	          0.01000009	          0.01676922	          0.07485396	          0.15574194	          0.10830360	          0.13394555	          0.11039174	          0.01000008	          0.01770132	          0.05680936	          0.01183126	          0.01183119	          0.07732352	          0.01852720	          0.01699317	          0.01428820	          0.01000018	          0.01000006	          0.01000001	          0.08965704	          0.09086444	          0.07657771	          0.01120836	          0.01061740	          0.01183112	          0.01183110	          0.01000022	          0.01076699	          0.26988958	          0.22291938	          0.14632549	          0.07627681	          0.30869873	          0.02872170	          0.17467057	          0.09732746	          0.06132448	          0.28432328	          0.22128520	          0.14674339	          0.01183054	          0.01000116	          0.01183094	          0.03836351	          0.10005460	          0.01000004	          0.01000002	          0.01000006	          0.01000027	          0.01000026	          0.38294467	          0.01000013	          0.01000016	          0.01782774	          0.01409815	          0.01001816	          0.23349696	          0.42927464	          0.01656068	          0.01656122	          0.06019257	          0.27944713	          0.01000010	          0.01000012	          0.01000010	          0.38573215	          0.42756806	          0.31217612	          0.28655231	          0.34997580	          0.42430882	          0.01424729	          0.08304913	          0.20083618	          0.01639326	          0.01402295	          0.01502798	          0.01399757	          0.00999999	          0.03579337	          0.01000001	          0.11036837	          0.01000001	
          0.01098683	         -2.92155374	         -0.63351805	          3.52831151	          0.01517421	          0.84565166	         -0.00187842	         27.71356732	          2.60035366	          2.69969602	        -10.59935193	          6.01887156	         -2.84101243	          0.23920388	        -17.32714766	          0.76731479	          9.09095305	         -6.27196075	          4.44319337	         11.43684039	         15.72625021	         -6.40253186	         -0.55282764	         -1.51712389	        -25.99459766	        -14.33064279	          8.65120013	         27.73166786	         23.58969423	        -13.46152008	         19.15414531	         57.49756330	          0.01183114	          0.01183111	          0.01000001	          0.01183115	          0.01183114	          0.01000105	          0.15219823	          0.03556929	          0.01000002	          0.01000002	          0.01417384	          0.06326978	          0.13163757	          0.21445948	          0.18083434	          0.11858026	          0.01000027	          0.01973171	          0.04801685	          0.01000012	          0.01000005	          0.07480248	          0.01656069	          0.01656034	          0.14651316	          0.01000005	          0.01000003	          0.01399763	          0.12679597	          0.11248734	          0.10124815	          0.00999999	          0.00999999	          0.00999999	          0.00999999	          0.01000001	          0.01000000	          0.28215085	          0.18841765	          0.13019621	          0.09680270	          0.33622612	          0.02427641	          0.21903686	          0.08226382	          0.05183312	          0.24036365	          0.18703629	          0.12403151	          0.01000013	          0.01000001	          0.01000000	          0.03242588	          0.08456889	          0.06709992	          0.01000014	          0.01000008	          0.01000015	          0.01000004	          0.32367528	          0.10303063	          0.01396508	          0.01506852	          0.01191618	          0.01000009	          0.19735801	          0.36283462	          0.01399755	          0.01399801	          0.05087640	          0.25897768	          0.01000003	          0.01000004	          0.01000003	          0.32603133	          0.36515346	          0.29057511	          0.27788979	          0.31762869	          0.39736705	          0.01204220	          0.07019540	          0.19277072	          0.01385603	          0.01185258	          0.01270206	          0.01183113	          0.01122139	          0.03025353	          0.02599193	          0.09328635	          0.01000014	
          0.02197366	         -2.91190217	         -0.88988466	          3.70616311	          0.03059607	          0.84499647	         -0.00161832	         27.13834341	          3.03814225	          2.76880137	        -11.10190060	          4.79277448	         -2.93007935	          0.24122527	        -17.25390948	          0.47004192	          8.98879932	         -8.18014124	          3.34163646	         11.71758782	         16.88324452	         -6.24462153	         -0.05149948	         -1.57532287	        -26.79832424	        -14.29124692	          8.84136387	         27.18974764	         23.17673566	        -13.47705021	         18.99349384	         58.87741535	          0.01000001	          0.01000000	          0.01000019	          0.01000002	          0.01000001	          0.01000002	          0.12864209	          0.03006415	          0.05524507	          0.01000003	          0.01198025	          0.05347736	          0.17654933	          0.18126719	          0.15284620	          0.10022733	          0.01000003	          0.01667799	          0.10176851	          0.01000012	          0.05414743	          0.06322512	          0.01399757	          0.01399756	          0.20303959	          0.01852836	          0.01012819	          0.01183118	          0.10717141	          0.09507737	          0.08557770	          0.01399791	          0.01603044	          0.01399758	          0.01368772	          0.01183118	          0.01379547	          0.23848158	          0.16466666	          0.14301289	          0.08182028	          0.37716639	          0.02051908	          0.18513592	          0.06953162	          0.04381077	          0.20316193	          0.15808817	          0.10483482	          0.01000091	          0.01000017	          0.01000022	          0.02740724	          0.07147993	          0.12011699	          0.06148320	          0.01183122	          0.01182228	          0.01000207	          0.27357917	          0.08708480	          0.01181609	          0.01273636	          0.01007197	          0.01000061	          0.16681237	          0.30667771	          0.01183112	          0.01183152	          0.04300212	          0.21889500	          0.03839708	          0.03239541	          0.02541859	          0.27557056	          0.30863765	          0.24560201	          0.24718136	          0.26846845	          0.33586549	          0.01017839	          0.05933124	          0.20424911	          0.01171150	          0.01001812	          0.01073613	          0.00999999	          0.02555627	          0.02557111	          0.02750186	          0.07884817	          0.01399758	
          0.03296048	         -2.90037746	         -1.16425738	          3.86438071	          0.04613109	          0.84441949	         -0.00137997	         26.51534343	          3.44345170	          2.89200104	        -11.72899279	          3.45302895	         -3.00702893	          0.24009899	        -17.04400985	          0.17415572	          8.86526811	        -10.30285413	          2.02111988	         11.97940410	         18.00220652	         -6.08489032	          0.47471768	         -1.62247256	        -27.37112499	        -14.25250197	          9.29701711	         26.29168365	         22.65760647	        -13.49311237	         18.82136046	         60.13048460	          0.23475301	          0.23484212	          0.23136065	          0.18715641	          0.06674522	          0.01000007	          0.10873180	          0.07518671	          0.04861667	          0.01399766	          0.01012608	          0.04520053	          0.14922432	          0.15321201	          0.12918986	          0.12386759	          0.01000009	          0.01409675	          0.08601771	          0.19129060	          0.12638474	          0.08750978	          0.01183113	          0.01183113	          0.17161460	          0.01566069	          0.01000003	          0.01000004	          0.09058421	          0.08036199	          0.07233261	          0.01183141	          0.01354937	          0.01183113	          0.01156924	          0.01000004	          0.01166031	          0.40407832	          0.28178135	          0.14326525	          0.47001242	          0.46334892	          0.24443140	          0.21384127	          0.05877002	          0.03703005	          0.23714508	          0.13362043	          0.08860924	          0.01096775	          0.01000002	          0.01000001	          0.02316535	          0.06041679	          0.14742643	          0.05196731	          0.01000017	          0.01000020	          0.01000016	          0.23123659	          0.07360655	          0.01000006	          0.01076516	          0.01000007	          0.01000007	          0.14099436	          0.25921236	          0.01000000	          0.01000034	          0.03634656	          0.21201067	          0.03245439	          0.02738171	          0.02148460	          0.23291974	          0.26086895	          0.20758951	          0.20892444	          0.22691686	          0.28388267	          0.00999999	          0.08800804	          0.17263699	          0.01000000	          0.00999999	          0.01000000	          0.03400473	          0.06102443	          0.02161340	          0.02324532	          0.06664462	          0.01183114	
